<?xml version="1.0" encoding="UTF-8" standalone="no"?>
<!DOCTYPE svg PUBLIC "-//W3C//DTD SVG 1.1//EN"
 "http://www.w3.org/Graphics/SVG/1.1/DTD/svg11.dtd">
<!-- Generated by graphviz version 13.0.1 (20250615.1724)
 -->
<!-- Title: RenderGraph Pages: 1 -->
<svg width="571pt" height="238pt"
 viewBox="0.00 0.00 571.00 238.00" xmlns="http://www.w3.org/2000/svg" xmlns:xlink="http://www.w3.org/1999/xlink">
<g id="graph0" class="graph" transform="scale(1 1) rotate(0) translate(4 233.9)">
<title>RenderGraph</title>
<polygon fill="white" stroke="none" points="-4,4 -4,-233.9 566.8,-233.9 566.8,4 -4,4"/>
<!-- Pass0 -->
<g id="node1" class="node">
<title>Pass0</title>
<path fill="orange" stroke="black" d="M105.27,-78.3C105.27,-78.3 22.47,-78.3 22.47,-78.3 16.47,-78.3 10.47,-72.3 10.47,-66.3 10.47,-66.3 10.47,-12 10.47,-12 10.47,-6 16.47,0 22.47,0 22.47,0 105.27,0 105.27,0 111.27,0 117.27,-6 117.27,-12 117.27,-12 117.27,-66.3 117.27,-66.3 117.27,-72.3 111.27,-78.3 105.27,-78.3"/>
<text xml:space="preserve" text-anchor="middle" x="63.87" y="-50.6" font-family="Times New Roman,serif" font-size="14.00">Depth Prepass</text>
<text xml:space="preserve" text-anchor="middle" x="63.87" y="-34.1" font-family="Times New Roman,serif" font-size="14.00">Refs: 2</text>
<text xml:space="preserve" text-anchor="middle" x="63.87" y="-17.6" font-family="Times New Roman,serif" font-size="14.00">Index: 0</text>
</g>
<!-- Resource0_1 -->
<g id="node5" class="node">
<title>Resource0_1</title>
<polygon fill="#8db6cd" stroke="black" points="254,-67.9 163.75,-67.9 163.75,-10.4 254,-10.4 254,-67.9"/>
<text xml:space="preserve" text-anchor="middle" x="208.87" y="-50.6" font-family="Times New Roman,serif" font-size="14.00">Depth Stencil</text>
<text xml:space="preserve" text-anchor="middle" x="208.87" y="-34.1" font-family="Times New Roman,serif" font-size="14.00">Id:0</text>
<text xml:space="preserve" text-anchor="middle" x="208.87" y="-17.6" font-family="Times New Roman,serif" font-size="14.00">Refs:2</text>
</g>
<!-- Pass0&#45;&gt;Resource0_1 -->
<g id="edge1" class="edge">
<title>Pass0&#45;&gt;Resource0_1</title>
<path fill="none" stroke="#ff7f24" d="M117.72,-39.15C129.05,-39.15 141.06,-39.15 152.5,-39.15"/>
<polygon fill="#ff7f24" stroke="#ff7f24" points="152.17,-42.65 162.17,-39.15 152.17,-35.65 152.17,-42.65"/>
</g>
<!-- Pass1 -->
<g id="node2" class="node">
<title>Pass1</title>
<path fill="orange" stroke="black" d="M387.05,-78.3C387.05,-78.3 302,-78.3 302,-78.3 296,-78.3 290,-72.3 290,-66.3 290,-66.3 290,-12 290,-12 290,-6 296,0 302,0 302,0 387.05,0 387.05,0 393.05,0 399.05,-6 399.05,-12 399.05,-12 399.05,-66.3 399.05,-66.3 399.05,-72.3 393.05,-78.3 387.05,-78.3"/>
<text xml:space="preserve" text-anchor="middle" x="344.52" y="-50.6" font-family="Times New Roman,serif" font-size="14.00">Depth Resolve</text>
<text xml:space="preserve" text-anchor="middle" x="344.52" y="-34.1" font-family="Times New Roman,serif" font-size="14.00">Refs: 2</text>
<text xml:space="preserve" text-anchor="middle" x="344.52" y="-17.6" font-family="Times New Roman,serif" font-size="14.00">Index: 1</text>
</g>
<!-- Resource1_1 -->
<g id="node6" class="node">
<title>Resource1_1</title>
<polygon fill="#8db6cd" stroke="black" points="562.8,-67.9 435.05,-67.9 435.05,-10.4 562.8,-10.4 562.8,-67.9"/>
<text xml:space="preserve" text-anchor="middle" x="498.92" y="-50.6" font-family="Times New Roman,serif" font-size="14.00">Depth Stencil Target</text>
<text xml:space="preserve" text-anchor="middle" x="498.92" y="-34.1" font-family="Times New Roman,serif" font-size="14.00">Id:1</text>
<text xml:space="preserve" text-anchor="middle" x="498.92" y="-17.6" font-family="Times New Roman,serif" font-size="14.00">Refs:1</text>
</g>
<!-- Pass1&#45;&gt;Resource1_1 -->
<g id="edge2" class="edge">
<title>Pass1&#45;&gt;Resource1_1</title>
<path fill="none" stroke="#ff7f24" d="M399.26,-39.15C407.06,-39.15 415.21,-39.15 423.34,-39.15"/>
<polygon fill="#ff7f24" stroke="#ff7f24" points="423.26,-42.65 433.26,-39.15 423.26,-35.65 423.26,-42.65"/>
</g>
<!-- Resource0_0 -->
<g id="node3" class="node">
<title>Resource0_0</title>
<polygon fill="#8db6cd" stroke="black" points="109,-153.9 18.75,-153.9 18.75,-96.4 109,-96.4 109,-153.9"/>
<text xml:space="preserve" text-anchor="middle" x="63.87" y="-136.6" font-family="Times New Roman,serif" font-size="14.00">Depth Stencil</text>
<text xml:space="preserve" text-anchor="middle" x="63.87" y="-120.1" font-family="Times New Roman,serif" font-size="14.00">Id:0</text>
<text xml:space="preserve" text-anchor="middle" x="63.87" y="-103.6" font-family="Times New Roman,serif" font-size="14.00">Refs:2</text>
</g>
<!-- Resource1_0 -->
<g id="node4" class="node">
<title>Resource1_0</title>
<polygon fill="#8db6cd" stroke="black" points="127.75,-229.9 0,-229.9 0,-172.4 127.75,-172.4 127.75,-229.9"/>
<text xml:space="preserve" text-anchor="middle" x="63.87" y="-212.6" font-family="Times New Roman,serif" font-size="14.00">Depth Stencil Target</text>
<text xml:space="preserve" text-anchor="middle" x="63.87" y="-196.1" font-family="Times New Roman,serif" font-size="14.00">Id:1</text>
<text xml:space="preserve" text-anchor="middle" x="63.87" y="-179.6" font-family="Times New Roman,serif" font-size="14.00">Refs:1</text>
</g>
<!-- Resource0_1&#45;&gt;Pass1 -->
<g id="edge3" class="edge">
<title>Resource0_1&#45;&gt;Pass1</title>
<path fill="none" stroke="darkseagreen" d="M254.38,-39.15C262.12,-39.15 270.31,-39.15 278.47,-39.15"/>
<polygon fill="darkseagreen" stroke="darkseagreen" points="278.42,-42.65 288.42,-39.15 278.42,-35.65 278.42,-42.65"/>
</g>
</g>
</svg>
