<?xml version="1.0" encoding="UTF-8" standalone="no"?>
<!DOCTYPE svg PUBLIC "-//W3C//DTD SVG 1.1//EN"
 "http://www.w3.org/Graphics/SVG/1.1/DTD/svg11.dtd">
<!-- Generated by graphviz version 13.0.1 (20250615.1724)
 -->
<!-- Title: RGGraph Pages: 1 -->
<svg width="426pt" height="283pt"
 viewBox="0.00 0.00 426.00 283.00" xmlns="http://www.w3.org/2000/svg" xmlns:xlink="http://www.w3.org/1999/xlink">
<g id="graph0" class="graph" transform="scale(1 1) rotate(0) translate(4 279.3)">
<title>RGGraph</title>
<polygon fill="white" stroke="none" points="-4,4 -4,-279.3 421.64,-279.3 421.64,4 -4,4"/>
<!-- Pass0 -->
<g id="node1" class="node">
<title>Pass0</title>
<path fill="orange" stroke="black" d="M105.28,-78.3C105.28,-78.3 22.47,-78.3 22.47,-78.3 16.47,-78.3 10.48,-72.3 10.48,-66.3 10.48,-66.3 10.48,-12 10.48,-12 10.48,-6 16.48,0 22.48,0 22.48,0 105.28,0 105.28,0 111.28,0 117.28,-6 117.28,-12 117.28,-12 117.28,-66.3 117.28,-66.3 117.28,-72.3 111.28,-78.3 105.28,-78.3"/>
<text xml:space="preserve" text-anchor="middle" x="63.88" y="-50.6" font-family="Times New Roman,serif" font-size="14.00">Depth Prepass</text>
<text xml:space="preserve" text-anchor="middle" x="63.88" y="-34.1" font-family="Times New Roman,serif" font-size="14.00">Refs: 2</text>
<text xml:space="preserve" text-anchor="middle" x="63.88" y="-17.6" font-family="Times New Roman,serif" font-size="14.00">Index: 0</text>
</g>
<!-- Resource0_ -->
<g id="node4" class="node">
<title>Resource0_</title>
<ellipse fill="none" stroke="black" cx="218.28" cy="-39.15" rx="54.42" ry="18"/>
<text xml:space="preserve" text-anchor="middle" x="218.28" y="-34.1" font-family="Times New Roman,serif" font-size="14.00">Resource0_</text>
</g>
<!-- Pass0&#45;&gt;Resource0_ -->
<g id="edge1" class="edge">
<title>Pass0&#45;&gt;Resource0_</title>
<path fill="none" stroke="black" d="M117.75,-39.15C128.84,-39.15 140.66,-39.15 152.14,-39.15"/>
<polygon fill="black" stroke="black" points="151.95,-42.65 161.95,-39.15 151.95,-35.65 151.95,-42.65"/>
</g>
<!-- Pass1 -->
<g id="node2" class="node">
<title>Pass1</title>
<path fill="orange" stroke="black" d="M260.8,-275.3C260.8,-275.3 175.75,-275.3 175.75,-275.3 169.75,-275.3 163.75,-269.3 163.75,-263.3 163.75,-263.3 163.75,-209 163.75,-209 163.75,-203 169.75,-197 175.75,-197 175.75,-197 260.8,-197 260.8,-197 266.8,-197 272.8,-203 272.8,-209 272.8,-209 272.8,-263.3 272.8,-263.3 272.8,-269.3 266.8,-275.3 260.8,-275.3"/>
<text xml:space="preserve" text-anchor="middle" x="218.28" y="-247.6" font-family="Times New Roman,serif" font-size="14.00">Depth Resolve</text>
<text xml:space="preserve" text-anchor="middle" x="218.28" y="-231.1" font-family="Times New Roman,serif" font-size="14.00">Refs: 2</text>
<text xml:space="preserve" text-anchor="middle" x="218.28" y="-214.6" font-family="Times New Roman,serif" font-size="14.00">Index: 1</text>
</g>
<!-- Resource1_ -->
<g id="node6" class="node">
<title>Resource1_</title>
<ellipse fill="none" stroke="black" cx="363.22" cy="-236.15" rx="54.42" ry="18"/>
<text xml:space="preserve" text-anchor="middle" x="363.22" y="-231.1" font-family="Times New Roman,serif" font-size="14.00">Resource1_</text>
</g>
<!-- Pass1&#45;&gt;Resource1_ -->
<g id="edge2" class="edge">
<title>Pass1&#45;&gt;Resource1_</title>
<path fill="none" stroke="black" d="M272.91,-236.15C280.88,-236.15 289.16,-236.15 297.33,-236.15"/>
<polygon fill="black" stroke="black" points="297.25,-239.65 307.25,-236.15 297.25,-232.65 297.25,-239.65"/>
</g>
<!-- Pass2 -->
<g id="node3" class="node">
<title>Pass2</title>
<path fill="orange" stroke="black" d="M243.18,-179.3C243.18,-179.3 193.38,-179.3 193.38,-179.3 187.38,-179.3 181.38,-173.3 181.38,-167.3 181.38,-167.3 181.38,-113 181.38,-113 181.38,-107 187.38,-101 193.38,-101 193.38,-101 243.18,-101 243.18,-101 249.18,-101 255.18,-107 255.18,-113 255.18,-113 255.18,-167.3 255.18,-167.3 255.18,-173.3 249.18,-179.3 243.18,-179.3"/>
<text xml:space="preserve" text-anchor="middle" x="218.28" y="-151.6" font-family="Times New Roman,serif" font-size="14.00">Present</text>
<text xml:space="preserve" text-anchor="middle" x="218.28" y="-135.1" font-family="Times New Roman,serif" font-size="14.00">Refs: 1</text>
<text xml:space="preserve" text-anchor="middle" x="218.28" y="-118.6" font-family="Times New Roman,serif" font-size="14.00">Index: 2</text>
</g>
<!-- &#45;842150451 -->
<g id="node5" class="node">
<title>&#45;842150451</title>
<polygon fill="#8db6cd" stroke="black" points="127.75,-271.9 0,-271.9 0,-214.4 127.75,-214.4 127.75,-271.9"/>
<text xml:space="preserve" text-anchor="middle" x="63.88" y="-254.6" font-family="Times New Roman,serif" font-size="14.00">Depth Stencil Target</text>
<text xml:space="preserve" text-anchor="middle" x="63.88" y="-238.1" font-family="Times New Roman,serif" font-size="14.00">Id:1</text>
<text xml:space="preserve" text-anchor="middle" x="63.88" y="-221.6" font-family="Times New Roman,serif" font-size="14.00">Refs:2</text>
</g>
<!-- &#45;842150450 -->
<g id="node7" class="node">
<title>&#45;842150450</title>
<polygon fill="#8db6cd" stroke="#ff7f24" points="127.75,-195.9 0,-195.9 0,-138.4 127.75,-138.4 127.75,-195.9"/>
<text xml:space="preserve" text-anchor="middle" x="63.88" y="-178.6" font-family="Times New Roman,serif" font-size="14.00">Depth Stencil Target</text>
<text xml:space="preserve" text-anchor="middle" x="63.88" y="-162.1" font-family="Times New Roman,serif" font-size="14.00">Id:1</text>
<text xml:space="preserve" text-anchor="middle" x="63.88" y="-145.6" font-family="Times New Roman,serif" font-size="14.00">Refs:2</text>
</g>
<!-- &#45;842150450&#45;&gt;Pass1 -->
<g id="edge3" class="edge">
<title>&#45;842150450&#45;&gt;Pass1</title>
<path fill="none" stroke="darkseagreen" d="M128.18,-195.81C136.46,-199.56 144.95,-203.41 153.24,-207.16"/>
<polygon fill="darkseagreen" stroke="darkseagreen" points="151.68,-210.29 162.23,-211.23 154.57,-203.92 151.68,-210.29"/>
</g>
<!-- &#45;842150450&#45;&gt;Pass2 -->
<g id="edge4" class="edge">
<title>&#45;842150450&#45;&gt;Pass2</title>
<path fill="none" stroke="darkseagreen" d="M128.18,-155.93C142.1,-153.47 156.6,-150.9 169.77,-148.57"/>
<polygon fill="darkseagreen" stroke="darkseagreen" points="170.22,-152.04 179.46,-146.85 169,-145.15 170.22,-152.04"/>
</g>
</g>
</svg>
